<svg width="148" height="148" viewBox="0 0 148 148" fill="none" xmlns="http://www.w3.org/2000/svg">
<rect x="20" y="20" width="108" height="108" fill="black"/>
<g clip-path="url(#clip0_1_13)">
<path fill-rule="evenodd" clip-rule="evenodd" d="M108.668 64.8612L105.547 57.8052C103.882 54.0407 102.782 51.5547 101.733 50.1942C99.9808 51.1787 97.9718 51.2973 96.2072 50.6834C95.3891 52.2013 94.6837 54.8154 93.6209 58.7498C92.8024 61.7809 92.393 63.2966 91.4043 64.0654C90.8565 64.4918 90.2011 64.757 89.5115 64.8324C88.267 64.9684 86.9204 64.1642 84.2278 62.5559L70.0351 54.078C68.3736 53.0858 66.9834 52.2555 65.7985 51.6253C65.0496 52.7798 64.0237 53.7794 62.7501 54.5147C61.4766 55.25 60.098 55.6387 58.7237 55.71C58.6771 57.0512 58.701 58.6703 58.7296 60.6053L58.9751 77.1355C59.0216 80.2716 59.045 81.8398 58.305 82.8495C57.8949 83.4089 57.3373 83.8442 56.6943 84.1053C55.534 84.5772 54.0168 84.1738 50.9825 83.3671C47.044 82.3201 44.4272 81.6242 42.7038 81.5736C42.3528 83.4089 41.246 85.0893 39.5171 86.1145C40.171 87.7032 41.7741 89.8985 44.2017 93.2228L48.7518 99.4536C49.5198 100.505 50.2723 101.544 51.01 102.563C57.4738 111.488 62.8207 118.871 67.84 119.922C73.4325 121.094 78.9585 117.903 90.0106 111.522L98.4899 106.627C109.542 100.246 115.068 97.0554 116.849 91.6262C118.449 86.7537 114.729 78.4318 110.232 68.3719C109.718 67.2233 109.194 66.0522 108.668 64.8612Z" fill="#B9C700"/>
<path d="M101.802 50.1543C105.03 48.2904 106.137 44.1621 104.273 40.9337C102.409 37.7052 98.2803 36.5991 95.0519 38.463C91.8236 40.3269 90.7173 44.4552 92.5813 47.6837C93.4242 49.1437 94.7305 50.1697 96.207 50.6832C97.9718 51.2973 99.9806 51.1783 101.733 50.1938L101.802 50.1543Z" fill="#1C274C"/>
<path d="M53.75 38.926C49.4453 41.4113 47.9705 46.9156 50.4558 51.2202C52.2058 54.2513 55.4528 55.8793 58.7236 55.7097C60.0978 55.6384 61.4764 55.2497 62.75 54.5144C64.0236 53.7791 65.0495 52.7796 65.7984 51.6251C67.5806 48.8773 67.7942 45.2513 66.0442 42.2202C63.559 37.9156 58.0548 36.4406 53.75 38.926Z" fill="#1C274C"/>
<path d="M30.2274 83.6837C32.0914 86.9121 36.2196 88.0183 39.4481 86.1543L39.5169 86.1141C41.2457 85.0889 42.3528 83.4089 42.7036 81.5733C42.9972 80.0379 42.7617 78.3937 41.9188 76.9337C40.0548 73.7052 35.9266 72.599 32.6981 74.463C29.4696 76.3269 28.3634 80.4552 30.2274 83.6837Z" fill="#1C274C"/>
<path d="M60.1928 114.448C58.7978 112.913 57.3572 111.123 55.8588 109.156L113.514 75.8685C114.468 78.1502 115.298 80.2925 115.93 82.2679L60.1928 114.448Z" fill="#1C274C"/>
</g>
<defs>
<clipPath id="clip0_1_13">
<rect width="108" height="108" fill="white" transform="translate(0.234634 54.2346) rotate(-30)"/>
</clipPath>
</defs>
</svg>
